# Blender 4.4.0
# www.blender.org
mtllib mountain_mid.mtl
o 平面
v -2.710949 -1.000000 -0.000000
v 2.710949 -1.000000 -0.000000
v -2.710949 -0.095900 -0.000000
v 2.710949 -0.095900 -0.000000
v -2.442129 -0.053701 -0.000000
v -2.259824 0.003239 0.000000
v -2.024346 0.100521 0.000000
v -1.743292 0.219282 0.000000
v -1.424259 0.313178 0.000000
v -1.169791 0.329237 0.000000
v -0.953304 0.281999 0.000000
v -0.786191 0.216095 0.000000
v -0.592492 0.121256 0.000000
v -0.425379 0.052116 0.000000
v -0.284852 0.002397 0.000000
v -0.144325 -0.042322 -0.000000
v -0.034182 -0.066794 -0.000000
v 0.155719 -0.068358 -0.000000
v 0.300044 -0.048073 -0.000000
v 0.425379 -0.024447 -0.000000
v 0.562108 -0.006507 -0.000000
v 0.759605 -0.011620 -0.000000
v 0.877344 -0.022117 -0.000000
v 1.017870 -0.032099 -0.000000
v 1.169791 -0.020516 -0.000000
v 1.359692 0.020360 0.000000
v 1.534401 0.075011 0.000000
v 1.747090 0.142668 0.000000
v 1.986366 0.148297 0.000000
v 2.214247 0.086172 0.000000
v 2.381361 0.011761 0.000000
v 2.537079 -0.047676 -0.000000
v 2.626263 -0.078121 -0.000000
v 0.660856 -0.006628 -0.000000
v 1.264741 -0.002674 -0.000000
v 1.447047 0.045090 0.000000
v 1.640746 0.111779 0.000000
v 1.866728 0.156465 0.000000
v 2.100307 0.127867 0.000000
v 2.297804 0.049818 0.000000
v 2.459220 -0.016991 -0.000000
v -1.061547 0.309968 0.000000
v -1.297025 0.324442 0.000000
v -1.583775 0.270438 0.000000
v -1.883819 0.161043 0.000000
v -2.142085 0.049031 0.000000
v 1.093830 -0.029677 -0.000000
v 0.060768 -0.073358 -0.000000
v 0.493743 -0.012572 -0.000000
v 0.227881 -0.058986 -0.000000
v 0.362711 -0.037030 -0.000000
v -0.869747 0.251274 0.000000
v -0.689341 0.170947 0.000000
v -0.508935 0.082314 0.000000
v -1.504017 0.294228 0.000000
v -1.663534 0.247081 0.000000
v -2.350976 -0.030471 -0.000000
v -2.576539 -0.082974 -0.000000
vn -0.0000 -0.0000 1.0000
vt 0.075556 0.516720
vt 0.074359 0.499407
vt 0.244519 0.999950
vt 0.079666 0.999950
vt 0.076425 0.984509
vt 0.070873 0.968247
vt 0.065278 0.954051
vt 0.060036 0.939854
vt 0.078754 0.000050
vt 0.245461 0.000207
vt 0.076347 0.024831
vt 0.053093 0.924620
vt 0.046468 0.909382
vt 0.038865 0.888607
vt 0.035140 0.867831
vt 0.033651 0.846016
vt 0.036166 0.824202
vt 0.041799 0.804811
vt 0.048503 0.785420
vt 0.053959 0.769492
vt 0.070926 0.049610
vt 0.066627 0.066414
vt 0.060396 0.083215
vt 0.031233 0.152519
vt 0.042277 0.126557
vt 0.051932 0.104917
vt 0.058468 0.753564
vt 0.062668 0.736251
vt 0.015330 0.193123
vt 0.020470 0.178421
vt 0.003101 0.237231
vt 0.006609 0.222528
vt 0.011009 0.207825
vt 0.065921 0.718938
vt 0.067591 0.705087
vt 0.001002 0.260690
vt 0.003545 0.304118
vt 0.000050 0.284148
vt 0.014265 0.339515
vt 0.008644 0.324092
vt 0.028981 0.372823
vt 0.020707 0.354941
vt 0.038091 0.390708
vt 0.068033 0.691237
vt 0.066213 0.665613
vt 0.064299 0.644145
vt 0.063389 0.626139
vt 0.045227 0.406136
vt 0.063367 0.608134
vt 0.064473 0.595668
vt 0.066638 0.583203
vt 0.068932 0.571776
vt 0.050751 0.421559
vt 0.059844 0.447497
vt 0.070946 0.560349
vt 0.069897 0.479324
vt 0.072936 0.547191
vt 0.074645 0.534033
s 1
usemtl マテリアル
f 48/1/1 17/2/1 2/3/1
f 2/3/1 4/4/1 33/5/1
f 32/6/1 41/7/1 31/8/1
f 2/3/1 33/5/1 32/6/1
f 3/9/1 1/10/1 2/3/1
f 58/11/1 3/9/1 2/3/1
f 2/3/1 32/6/1 31/8/1
f 31/8/1 40/12/1 30/13/1
f 30/13/1 39/14/1 29/15/1
f 29/15/1 38/16/1 28/17/1
f 28/17/1 37/18/1 27/19/1
f 28/17/1 27/19/1 36/20/1
f 30/13/1 29/15/1 28/17/1
f 2/3/1 31/8/1 30/13/1
f 5/21/1 58/11/1 2/3/1
f 57/22/1 5/21/1 2/3/1
f 2/3/1 30/13/1 28/17/1
f 2/3/1 28/17/1 36/20/1
f 6/23/1 57/22/1 2/3/1
f 45/24/1 7/25/1 46/26/1
f 46/26/1 6/23/1 2/3/1
f 2/3/1 36/20/1 26/27/1
f 2/3/1 26/27/1 35/28/1
f 45/24/1 46/26/1 2/3/1
f 56/29/1 8/30/1 45/24/1
f 9/31/1 55/32/1 44/33/1
f 44/33/1 56/29/1 45/24/1
f 2/3/1 35/28/1 25/34/1
f 2/3/1 25/34/1 47/35/1
f 44/33/1 45/24/1 2/3/1
f 43/36/1 9/31/1 44/33/1
f 42/37/1 10/38/1 43/36/1
f 52/39/1 11/40/1 42/37/1
f 53/41/1 12/42/1 52/39/1
f 13/43/1 53/41/1 52/39/1
f 52/39/1 42/37/1 43/36/1
f 43/36/1 44/33/1 2/3/1
f 2/3/1 47/35/1 24/44/1
f 23/45/1 22/46/1 34/47/1
f 2/3/1 24/44/1 23/45/1
f 13/43/1 52/39/1 43/36/1
f 54/48/1 13/43/1 43/36/1
f 2/3/1 23/45/1 34/47/1
f 34/47/1 21/49/1 49/50/1
f 49/50/1 20/51/1 51/52/1
f 34/47/1 49/50/1 51/52/1
f 14/53/1 54/48/1 43/36/1
f 15/54/1 14/53/1 43/36/1
f 2/3/1 34/47/1 51/52/1
f 2/3/1 51/52/1 19/55/1
f 15/54/1 43/36/1 2/3/1
f 16/56/1 15/54/1 2/3/1
f 2/3/1 19/55/1 50/57/1
f 2/3/1 50/57/1 18/58/1
f 17/2/1 16/56/1 2/3/1
f 2/3/1 18/58/1 48/1/1
