# Blender 4.4.0
# www.blender.org
mtllib back2.mtl
o 平面
v 0.000000 -1.000000 3.000000
v -0.000000 -1.000000 -3.000000
v 0.000000 -0.198510 3.000000
v -0.000000 -0.443404 -3.000000
v 0.000000 -0.144583 2.758487
v 0.000000 -0.109085 2.566503
v 0.000000 -0.087195 2.427469
v 0.000000 -0.050810 2.206495
v 0.000000 -0.023299 1.982563
v 0.000000 -0.016199 1.851517
v 0.000000 -0.016791 1.649771
v 0.000000 -0.025370 1.472282
v 0.000000 -0.045485 1.306035
v 0.000000 -0.074179 1.120855
v 0.000000 -0.085124 1.050451
v 0.000000 -0.105240 0.886865
v 0.000000 -0.130976 0.698431
v 0.000000 -0.146358 0.502010
v 0.000000 -0.157007 0.289615
v -0.000000 -0.156120 0.095264
v -0.000000 -0.154049 -0.136359
v -0.000000 -0.150499 -0.262968
v -0.000000 -0.147837 -0.536005
v -0.000000 -0.153457 -0.720297
v -0.000000 -0.164107 -0.914648
v -0.000000 -0.173277 -1.063443
v -0.000000 -0.181560 -1.277908
v -0.000000 -0.207296 -1.490895
v -0.000000 -0.230961 -1.686133
v -0.000000 -0.243681 -1.742338
v -0.000000 -0.285095 -2.040519
v -0.000000 -0.335384 -2.347871
v -0.000000 -0.368515 -2.549024
v -0.000000 -0.399576 -2.776210
v -0.000000 -0.429453 -2.943937
vn 1.0000 -0.0000 -0.0000
vt 0.790390 0.378160
vt 0.484123 0.421940
vt 0.451731 0.421496
vt 0.000000 0.400745
vt 0.000000 0.000000
vt 1.000000 0.000000
vt 1.000000 0.278298
vt 0.990656 0.285273
vt 0.962702 0.300212
vt 0.924837 0.315742
vt 0.891312 0.332308
vt 0.840086 0.357452
vt 0.781022 0.384520
vt 0.748483 0.396352
vt 0.040252 0.427708
vt 0.095422 0.456403
vt 0.072250 0.445457
vt 0.169573 0.488351
vt 0.132251 0.474595
vt 0.225038 0.491605
vt 0.191414 0.491900
vt 0.282328 0.477257
vt 0.254620 0.487315
vt 0.324925 0.457438
vt 0.313191 0.462911
vt 0.383595 0.434512
vt 0.352189 0.447380
vt 0.712985 0.409220
vt 0.677241 0.413362
vt 0.652441 0.417947
vt 0.620050 0.423271
vt 0.589334 0.426082
vt 0.543828 0.424750
vt 0.522726 0.422975
vt 0.416332 0.426821
s 0
usemtl マテリアル
f 30/1/1 20/2/1 19/3/1
f 3/4/1 1/5/1 2/6/1
f 2/6/1 4/7/1 35/8/1
f 35/8/1 34/9/1 33/10/1
f 33/10/1 32/11/1 31/12/1
f 30/1/1 29/13/1 28/14/1
f 33/10/1 31/12/1 30/1/1
f 2/6/1 35/8/1 33/10/1
f 5/15/1 3/4/1 2/6/1
f 7/16/1 6/17/1 5/15/1
f 9/18/1 8/19/1 7/16/1
f 11/20/1 10/21/1 9/18/1
f 13/22/1 12/23/1 11/20/1
f 15/24/1 14/25/1 13/22/1
f 17/26/1 16/27/1 15/24/1
f 15/24/1 13/22/1 11/20/1
f 11/20/1 9/18/1 7/16/1
f 7/16/1 5/15/1 2/6/1
f 2/6/1 33/10/1 30/1/1
f 30/1/1 28/14/1 27/28/1
f 26/29/1 25/30/1 24/31/1
f 30/1/1 27/28/1 26/29/1
f 7/16/1 2/6/1 30/1/1
f 15/24/1 11/20/1 7/16/1
f 17/26/1 15/24/1 7/16/1
f 30/1/1 26/29/1 24/31/1
f 24/31/1 23/32/1 22/33/1
f 24/31/1 22/33/1 21/34/1
f 18/35/1 17/26/1 7/16/1
f 19/3/1 18/35/1 7/16/1
f 30/1/1 24/31/1 21/34/1
f 30/1/1 21/34/1 20/2/1
f 19/3/1 7/16/1 30/1/1
