# Blender 4.4.0
# www.blender.org
mtllib back3.mtl
o 平面.001
v -2.710949 -1.000000 -0.000000
v 2.710949 -1.000000 -0.000000
v -2.710949 -0.005007 -0.000000
v 2.710949 -0.005007 -0.000000
v -2.442129 0.037192 0.000000
v -0.144325 0.040939 0.000000
v -0.034182 0.027151 0.000000
v 0.155719 0.006966 0.000000
v 0.060768 0.017535 0.000000
v 1.082970 0.047919 0.000000
v 1.772569 0.047003 0.000000
v 2.272887 0.015834 0.000000
v -2.350976 0.060422 0.000000
v -2.576539 0.007919 0.000000
v 0.423510 -0.005007 -0.000000
v -2.293033 0.076121 0.000000
v 0.226440 -0.001015 -0.000000
v -0.270536 0.070418 0.000000
v -1.884316 0.155464 0.000000
v -1.720790 0.187114 0.000000
v -1.573089 0.202939 0.000000
v -1.280325 0.218764 0.000000
v -0.992836 0.204746 0.000000
v -0.731722 0.171570 0.000000
v -0.452145 0.113263 0.000000
v 0.723058 0.017514 0.000000
v 0.897061 0.035098 0.000000
v 1.268878 0.054147 0.000000
v 1.494165 0.060374 0.000000
v 2.050974 0.031435 0.000000
v 2.494799 0.004630 0.000000
v 0.573284 -0.002904 -0.000000
v 0.305896 -0.000722 -0.000000
vn -0.0000 -0.0000 1.0000
vt 0.027405 0.450108
vt 0.000047 0.263883
vt 0.029249 0.066434
vt 0.037472 0.919166
vt 0.034475 0.878248
vt 0.031616 0.826903
vt 0.029090 0.775563
vt 0.030189 0.734014
vt 0.031298 0.699727
vt 0.033622 0.665439
vt 0.036828 0.633345
vt 0.040561 0.605719
vt 0.041315 0.578104
vt 0.040525 0.556413
vt 0.040579 0.541760
vt 0.224811 0.999953
vt 0.041315 0.999953
vt 0.039538 0.960090
vt 0.038955 0.528735
vt 0.037081 0.511215
vt 0.035385 0.493696
vt 0.041315 0.000047
vt 0.224812 0.000047
vt 0.038931 0.024835
vt 0.032842 0.473384
vt 0.033533 0.049623
vt 0.011549 0.152461
vt 0.026332 0.077114
vt 0.019504 0.416616
vt 0.008751 0.365056
vt 0.002633 0.316902
vt 0.002966 0.209892
vt 0.005884 0.182653
s 1
usemtl マテリアル
f 18/1/1 22/2/1 13/3/1
f 12/4/1 30/5/1 11/6/1
f 11/6/1 29/7/1 28/8/1
f 28/8/1 10/9/1 27/10/1
f 27/10/1 26/11/1 32/12/1
f 15/13/1 33/14/1 17/15/1
f 28/8/1 27/10/1 32/12/1
f 11/6/1 28/8/1 32/12/1
f 12/4/1 11/6/1 32/12/1
f 12/4/1 32/12/1 15/13/1
f 2/16/1 4/17/1 31/18/1
f 31/18/1 12/4/1 15/13/1
f 17/15/1 8/19/1 9/20/1
f 2/16/1 31/18/1 15/13/1
f 17/15/1 9/20/1 7/21/1
f 2/16/1 15/13/1 17/15/1
f 3/22/1 1/23/1 2/16/1
f 14/24/1 3/22/1 2/16/1
f 2/16/1 17/15/1 7/21/1
f 2/16/1 7/21/1 6/25/1
f 5/26/1 14/24/1 2/16/1
f 19/27/1 16/28/1 13/3/1
f 13/3/1 5/26/1 2/16/1
f 2/16/1 6/25/1 18/1/1
f 18/1/1 25/29/1 24/30/1
f 24/30/1 23/31/1 22/2/1
f 22/2/1 21/32/1 20/33/1
f 20/33/1 19/27/1 13/3/1
f 13/3/1 2/16/1 18/1/1
f 18/1/1 24/30/1 22/2/1
f 22/2/1 20/33/1 13/3/1
