# Blender 4.4.0
# www.blender.org
mtllib Frame.mtl
o 立方体
v 0.851949 -1.753078 0.088962
v 0.851949 0.923116 0.088962
v -1.835734 -1.753078 0.088962
v -1.835734 0.923116 0.088962
v 0.851949 -1.753078 -0.088962
v 0.851949 0.923116 -0.088962
v -1.835734 -1.753078 -0.088962
v -1.835734 0.923116 -0.088962
v 0.599845 -1.502052 0.088962
v -1.583630 0.672090 0.088962
v 0.599845 0.672090 0.088962
v -1.583630 -1.502052 0.088962
v -1.583630 -1.502052 -0.088962
v 0.599845 0.672090 -0.088962
v -1.583630 0.672090 -0.088962
v 0.599845 -1.502052 -0.088962
vn -0.0000 -0.0000 1.0000
vn -1.0000 -0.0000 -0.0000
vn -0.0000 -0.0000 -1.0000
vn 1.0000 -0.0000 -0.0000
vn -0.0000 -1.0000 -0.0000
vn -0.0000 1.0000 -0.0000
vt 0.499823 0.250000
vt 0.273433 0.226567
vt 0.476390 0.226567
vt 0.250000 0.000177
vt 0.476390 0.023610
vt 0.273433 0.023610
vt 0.250000 0.499823
vt 0.250000 0.250000
vt 0.499823 0.499823
vt 0.499823 0.749647
vt 0.476390 0.523257
vt 0.250000 0.749647
vt 0.273433 0.523257
vt 0.273433 0.726213
vt 0.250000 0.999470
vt 0.000177 0.749647
vt 0.000177 0.499823
vt 0.749647 0.499823
vt 0.999823 0.203133
vt 0.750000 0.000177
vt 0.999823 0.000177
vt 0.999823 0.406796
vt 0.750000 0.609753
vt 0.750000 0.406796
vt 0.999823 0.406443
vt 0.750000 0.203487
vt 0.999823 0.203487
vt 0.750000 0.813063
vt 0.999823 0.610106
vt 0.999823 0.813063
vt 0.499823 0.000177
vt 0.476390 0.726213
vt 0.499823 0.999470
vt 0.749647 0.749647
vt 0.750000 0.203133
vt 0.999823 0.609753
vt 0.750000 0.406443
vt 0.750000 0.610106
s 1
usemtl マテリアル
f 4/1/1 12/2/1 10/3/1
f 1/4/1 11/5/1 9/6/1
f 4/1/2 7/7/2 3/8/2
f 8/9/3 6/10/3 15/11/3
f 5/12/3 13/13/3 16/14/3
f 6/10/4 1/15/4 5/12/4
f 7/7/5 1/16/5 3/17/5
f 4/18/6 6/10/6 8/9/6
f 12/19/4 15/20/4 10/21/4
f 9/22/2 14/23/2 16/24/2
f 9/25/6 13/26/6 12/27/6
f 15/28/5 11/29/5 10/30/5
f 10/3/1 11/5/1 2/31/1
f 4/1/1 3/8/1 12/2/1
f 10/3/1 2/31/1 4/1/1
f 9/6/1 12/2/1 3/8/1
f 1/4/1 2/31/1 11/5/1
f 9/6/1 3/8/1 1/4/1
f 4/1/2 8/9/2 7/7/2
f 13/13/3 7/7/3 8/9/3
f 6/10/3 5/12/3 16/14/3
f 6/10/3 16/14/3 14/32/3
f 15/11/3 13/13/3 8/9/3
f 6/10/3 14/32/3 15/11/3
f 5/12/3 7/7/3 13/13/3
f 6/10/4 2/33/4 1/15/4
f 7/7/5 5/12/5 1/16/5
f 4/18/6 2/34/6 6/10/6
f 12/19/4 13/35/4 15/20/4
f 9/22/2 11/36/2 14/23/2
f 9/25/6 16/37/6 13/26/6
f 15/28/5 14/38/5 11/29/5
