# Blender 4.4.0
# www.blender.org
mtllib GoalDown.mtl
o Cube
v 0.500000 -0.500000 -0.500000
v 0.500000 -0.500000 0.500000
v -0.500000 -0.500000 -0.500000
v -0.500000 -0.500000 0.500000
v 0.500000 -0.145096 -0.500000
v 0.500000 -0.145096 0.500000
v -0.500000 -0.145096 -0.500000
v -0.500000 -0.145096 0.500000
v 0.075729 0.000000 -0.075729
v 0.304617 -0.047404 -0.304617
v 0.075729 0.000000 0.075729
v 0.304617 -0.047404 0.304617
v -0.075729 0.000000 -0.075729
v -0.304617 -0.047404 -0.304617
v -0.075729 0.000000 0.075729
v -0.304617 -0.047404 0.304617
vn -0.0000 -0.0000 1.0000
vn -1.0000 -0.0000 -0.0000
vn -0.0000 -1.0000 -0.0000
vn -0.0000 0.8944 0.4472
vn 1.0000 -0.0000 -0.0000
vn -0.4472 0.8944 -0.0000
vn -0.0000 1.0000 -0.0000
vn 0.4472 0.8944 -0.0000
vn -0.0000 -0.0000 -1.0000
vn -0.0000 0.9792 0.2028
vn 0.2028 0.9792 -0.0000
vn -0.2028 0.9792 -0.0000
vn -0.0000 0.9792 -0.2028
vn -0.0000 0.8944 -0.4472
vt 0.655000 0.000313
vt 0.383474 0.382848
vt 0.383474 0.000313
vt 0.544617 0.766008
vt 0.816144 0.383474
vt 0.816144 0.766008
vt 0.382848 0.382848
vt 0.000313 0.000313
vt 0.382848 0.000313
vt 0.761325 0.308107
vt 0.655626 0.000313
vt 0.761325 0.075054
vt 0.271839 0.383473
vt 0.000313 0.766008
vt 0.000313 0.383474
vt 0.867650 0.308107
vt 0.761951 0.000313
vt 0.867650 0.075054
vt 0.381903 0.824572
vt 0.439840 0.766634
vt 0.439840 0.824572
vt 0.922469 0.691268
vt 0.816769 0.383474
vt 0.922469 0.458214
vt 0.272465 0.766008
vt 0.543991 0.383473
vt 0.543991 0.766008
vt 0.095085 0.912129
vt 0.000313 0.766634
vt 0.095085 0.854192
vt 0.190482 0.912129
vt 0.095710 0.766634
vt 0.190482 0.854192
vt 0.191108 0.854192
vt 0.285880 0.999687
vt 0.191108 0.912129
vt 0.286505 0.854192
vt 0.381277 0.999687
vt 0.286505 0.912129
vt 0.973976 0.308107
vt 0.868276 0.000313
vt 0.973976 0.075054
vt 0.655000 0.382848
vt 0.544617 0.383474
vt 0.000313 0.382848
vt 0.655626 0.382848
vt 0.271839 0.766008
vt 0.761951 0.382848
vt 0.381903 0.766634
vt 0.816769 0.766008
vt 0.272465 0.383473
vt 0.000313 0.999687
vt 0.095710 0.999687
vt 0.285880 0.766634
vt 0.381277 0.766634
vt 0.868276 0.382848
s 0
usemtl Material
f 6/1/1 4/2/1 2/3/1
f 8/4/2 3/5/2 4/6/2
f 1/7/3 4/8/3 3/9/3
f 16/10/4 6/11/4 12/12/4
f 5/13/5 2/14/5 1/15/5
f 14/16/6 8/17/6 16/18/6
f 13/19/7 11/20/7 9/21/7
f 12/22/8 5/23/8 10/24/8
f 7/25/9 1/26/9 3/27/9
f 15/28/10 12/29/10 11/30/10
f 11/31/11 10/32/11 9/33/11
f 13/34/12 16/35/12 15/36/12
f 9/37/13 14/38/13 13/39/13
f 10/40/14 7/41/14 14/42/14
f 6/1/1 8/43/1 4/2/1
f 8/4/2 7/44/2 3/5/2
f 1/7/3 2/45/3 4/8/3
f 16/10/4 8/46/4 6/11/4
f 5/13/5 6/47/5 2/14/5
f 14/16/6 7/48/6 8/17/6
f 13/19/7 15/49/7 11/20/7
f 12/22/8 6/50/8 5/23/8
f 7/25/9 5/51/9 1/26/9
f 15/28/10 16/52/10 12/29/10
f 11/31/11 12/53/11 10/32/11
f 13/34/12 14/54/12 16/35/12
f 9/37/13 10/55/13 14/38/13
f 10/40/14 5/56/14 7/41/14
