# Blender 4.4.0
# www.blender.org
mtllib GoalUp.mtl
o 円柱
v 0.000000 -1.250000 -0.050000
v 0.000000 0.750000 -0.050000
v 0.009755 -1.250000 -0.049039
v 0.009755 0.750000 -0.049039
v 0.019134 -1.250000 -0.046194
v 0.019134 0.750000 -0.046194
v 0.027779 -1.250000 -0.041573
v 0.027779 0.750000 -0.041573
v 0.035355 -1.250000 -0.035355
v 0.035355 0.750000 -0.035355
v 0.041574 -1.250000 -0.027779
v 0.041574 0.750000 -0.027779
v 0.046194 -1.250000 -0.019134
v 0.046194 0.750000 -0.019134
v 0.049039 -1.250000 -0.009755
v 0.049039 0.750000 -0.009755
v 0.050000 -1.250000 0.000000
v 0.050000 0.750000 -0.000000
v 0.049039 -1.250000 0.009755
v 0.049039 0.750000 0.009755
v 0.046194 -1.250000 0.019134
v 0.046194 0.750000 0.019134
v 0.041574 -1.250000 0.027779
v 0.041574 0.750000 0.027779
v 0.035355 -1.250000 0.035355
v 0.035355 0.750000 0.035355
v 0.027779 -1.250000 0.041573
v 0.027779 0.750000 0.041573
v 0.019134 -1.250000 0.046194
v 0.019134 0.750000 0.046194
v 0.009755 -1.250000 0.049039
v 0.009755 0.750000 0.049039
v 0.000000 -1.250000 0.050000
v 0.000000 0.750000 0.050000
v -0.009755 -1.250000 0.049039
v -0.009755 0.750000 0.049039
v -0.019134 -1.250000 0.046194
v -0.019134 0.750000 0.046194
v -0.027779 -1.250000 0.041573
v -0.027779 0.750000 0.041573
v -0.035355 -1.250000 0.035355
v -0.035355 0.750000 0.035355
v -0.041574 -1.250000 0.027779
v -0.041574 0.750000 0.027779
v -0.046194 -1.250000 0.019134
v -0.046194 0.750000 0.019134
v -0.049039 -1.250000 0.009755
v -0.049039 0.750000 0.009755
v -0.050000 -1.250000 0.000000
v -0.050000 0.750000 -0.000000
v -0.049039 -1.250000 -0.009755
v -0.049039 0.750000 -0.009755
v -0.046194 -1.250000 -0.019134
v -0.046194 0.750000 -0.019134
v -0.041574 -1.250000 -0.027779
v -0.041574 0.750000 -0.027779
v -0.035355 -1.250000 -0.035355
v -0.035355 0.750000 -0.035355
v -0.027779 -1.250000 -0.041573
v -0.027779 0.750000 -0.041573
v -0.019134 -1.250000 -0.046194
v -0.019134 0.750000 -0.046194
v -0.009755 -1.250000 -0.049039
v -0.009755 0.750000 -0.049039
v -0.045273 0.444444 -0.010000
v -0.045273 0.502971 -0.009808
v -0.045273 0.559249 -0.009239
v -0.045273 0.611115 -0.008315
v -0.045273 0.656576 -0.007071
v -0.045273 0.693885 -0.005556
v -0.045273 0.721608 -0.003827
v -0.045273 0.738679 -0.001951
v -0.045273 0.744444 -0.000000
v -0.045273 0.738679 0.001951
v -0.045273 0.721608 0.003827
v -0.045273 0.693885 0.005556
v -0.045273 0.656576 0.007071
v -0.045273 0.611115 0.008315
v -0.045273 0.559249 0.009239
v -0.045273 0.502971 0.009808
v -0.045273 0.444444 0.010000
v -0.045273 0.385917 0.009808
v -0.045273 0.329639 0.009239
v -0.045273 0.277773 0.008315
v -0.045273 0.232312 0.007071
v -0.045273 0.195003 0.005556
v -0.045273 0.167280 0.003827
v -0.045273 0.150208 0.001951
v -0.045273 0.144444 -0.000000
v -0.045273 0.150208 -0.001951
v -0.045273 0.167280 -0.003827
v -0.045273 0.195003 -0.005556
v -0.045273 0.232312 -0.007071
v -0.045273 0.277773 -0.008315
v -0.045273 0.329639 -0.009239
v -0.045273 0.385917 -0.009808
v -0.837182 0.444444 -0.000000
vn 0.0980 -0.0000 -0.9952
vn 0.2903 -0.0000 -0.9569
vn 0.4714 -0.0000 -0.8819
vn 0.6344 -0.0000 -0.7730
vn 0.7729 -0.0000 -0.6345
vn 0.8820 -0.0000 -0.4713
vn 0.9569 -0.0000 -0.2903
vn 0.9952 -0.0000 -0.0980
vn 0.9952 -0.0000 0.0980
vn 0.9569 -0.0000 0.2903
vn 0.8820 -0.0000 0.4713
vn 0.7729 -0.0000 0.6345
vn 0.6344 -0.0000 0.7730
vn 0.4714 -0.0000 0.8819
vn 0.2903 -0.0000 0.9569
vn 0.0980 -0.0000 0.9952
vn -0.0980 -0.0000 0.9952
vn -0.2903 -0.0000 0.9569
vn -0.4714 -0.0000 0.8819
vn -0.6344 -0.0000 0.7730
vn -0.7729 -0.0000 0.6345
vn -0.8820 -0.0000 0.4713
vn -0.9569 -0.0000 0.2903
vn -0.9952 -0.0000 0.0980
vn -0.9952 -0.0000 -0.0980
vn -0.9569 -0.0000 -0.2903
vn -0.8820 -0.0000 -0.4713
vn -0.7729 -0.0000 -0.6345
vn -0.6344 -0.0000 -0.7730
vn -0.4714 -0.0000 -0.8819
vn -0.0000 1.0000 -0.0000
vn -0.2903 -0.0000 -0.9569
vn -0.0980 -0.0000 -0.9952
vn -0.0000 -1.0000 -0.0000
vn -0.0126 -0.0000 -0.9999
vn -0.0131 -0.0087 -0.9999
vn -0.0126 0.0033 -0.9999
vn -0.0131 0.0101 -0.9999
vn -0.0146 0.0176 -0.9997
vn -0.0130 0.0104 -0.9999
vn -0.0142 0.0178 -0.9997
vn -0.0163 0.0274 -0.9995
vn -0.0198 0.0406 -0.9990
vn -0.0266 0.0622 -0.9977
vn -0.0430 0.1091 -0.9931
vn -0.1206 0.3182 -0.9403
vn -0.1206 0.3182 0.9403
vn -0.0430 0.1091 0.9931
vn -0.0266 0.0622 0.9977
vn -0.0198 0.0406 0.9990
vn -0.0163 0.0274 0.9995
vn -0.0163 0.0271 0.9995
vn -0.0138 0.0184 0.9997
vn -0.0142 0.0178 0.9997
vn -0.0131 0.0101 0.9999
vn -0.0131 0.0087 0.9999
vn -0.0126 0.0035 0.9999
vn -0.0126 -0.0000 0.9999
vn -0.0126 -0.0033 0.9999
vn -0.0131 -0.0101 0.9999
vn -0.0146 -0.0176 0.9997
vn -0.0130 -0.0104 0.9999
vn -0.0142 -0.0178 0.9997
vn -0.0163 -0.0274 0.9995
vn -0.0198 -0.0406 0.9990
vn -0.0266 -0.0622 0.9977
vn -0.0430 -0.1091 0.9931
vn -0.1206 -0.3183 0.9403
vn -0.1206 -0.3183 -0.9403
vn -0.0430 -0.1091 -0.9931
vn -0.0266 -0.0622 -0.9977
vn -0.0198 -0.0406 -0.9990
vn -0.0163 -0.0274 -0.9995
vn -0.0163 -0.0271 -0.9995
vn -0.0138 -0.0184 -0.9997
vn -0.0142 -0.0178 -0.9997
vn 1.0000 -0.0000 -0.0000
vn -0.0131 -0.0101 -0.9999
vn -0.0126 -0.0035 -0.9999
vn -0.0000 -1.0000 -0.0001
vn -0.0000 -1.0000 0.0001
vt 0.385969 0.000172
vt 0.000172 0.024285
vt 0.000172 0.000172
vt 0.385969 0.024285
vt 0.000172 0.048397
vt 0.385969 0.048397
vt 0.000172 0.072509
vt 0.385969 0.072509
vt 0.000172 0.096621
vt 0.385969 0.096621
vt 0.000172 0.120734
vt 0.385969 0.120734
vt 0.000172 0.144846
vt 0.385969 0.144846
vt 0.000172 0.168958
vt 0.385969 0.168958
vt 0.000172 0.193071
vt 0.385969 0.193071
vt 0.000172 0.217183
vt 0.385969 0.217183
vt 0.000172 0.241295
vt 0.385969 0.241295
vt 0.000172 0.265407
vt 0.385969 0.265407
vt 0.000172 0.289520
vt 0.385969 0.289520
vt 0.000172 0.313632
vt 0.385969 0.313632
vt 0.000172 0.337744
vt 0.385969 0.337744
vt 0.000172 0.361857
vt 0.385969 0.361856
vt 0.000172 0.385969
vt 0.385969 0.385969
vt 0.000172 0.410081
vt 0.385969 0.410081
vt 0.000172 0.434193
vt 0.385969 0.434193
vt 0.000172 0.458306
vt 0.385969 0.458306
vt 0.000172 0.482418
vt 0.385969 0.482418
vt 0.000172 0.506530
vt 0.385969 0.506530
vt 0.000172 0.530643
vt 0.385969 0.530643
vt 0.000172 0.554755
vt 0.385969 0.554755
vt 0.000172 0.578867
vt 0.385969 0.578867
vt 0.000172 0.602979
vt 0.385969 0.602979
vt 0.000172 0.627092
vt 0.385969 0.627092
vt 0.000172 0.651204
vt 0.385969 0.651204
vt 0.000172 0.675316
vt 0.385969 0.675316
vt 0.000172 0.699429
vt 0.385969 0.699428
vt 0.000172 0.723541
vt 0.392204 0.686947
vt 0.494892 0.494832
vt 0.687007 0.597520
vt 0.385969 0.723541
vt 0.000172 0.747653
vt 0.385969 0.747653
vt 0.000172 0.771765
vt 0.748817 0.761303
vt 0.965605 0.739951
vt 0.944253 0.523163
vt 0.777900 0.064809
vt 0.630525 0.244384
vt 0.740034 0.039508
vt 0.697961 0.022080
vt 0.653295 0.013195
vt 0.607756 0.013195
vt 0.563090 0.022080
vt 0.521017 0.039507
vt 0.483151 0.064808
vt 0.450950 0.097010
vt 0.425649 0.134875
vt 0.408221 0.176949
vt 0.399336 0.221614
vt 0.399336 0.267154
vt 0.408221 0.311819
vt 0.425648 0.353893
vt 0.450949 0.391758
vt 0.483151 0.423960
vt 0.521016 0.449261
vt 0.563090 0.466688
vt 0.607755 0.475573
vt 0.653295 0.475573
vt 0.697960 0.466688
vt 0.740034 0.449261
vt 0.777899 0.423960
vt 0.810101 0.391759
vt 0.835402 0.353893
vt 0.852829 0.311819
vt 0.861714 0.267154
vt 0.861714 0.221615
vt 0.852829 0.176950
vt 0.835402 0.134876
vt 0.004446 0.791873
vt 0.019935 0.842934
vt 0.070996 0.827445
vt 0.810101 0.097010
vt 0.692898 0.627135
vt 0.692898 0.657331
vt 0.687007 0.686947
vt 0.675452 0.714845
vt 0.658676 0.739952
vt 0.637324 0.761303
vt 0.612217 0.778079
vt 0.584319 0.789635
vt 0.554704 0.795526
vt 0.524508 0.795526
vt 0.494892 0.789635
vt 0.466995 0.778079
vt 0.441887 0.761303
vt 0.420536 0.739951
vt 0.403760 0.714844
vt 0.386313 0.657331
vt 0.386313 0.627135
vt 0.392204 0.597519
vt 0.403760 0.569622
vt 0.420536 0.544515
vt 0.441888 0.523163
vt 0.466995 0.506387
vt 0.524508 0.488941
vt 0.554704 0.488941
vt 0.584320 0.494832
vt 0.612217 0.506387
vt 0.637324 0.523163
vt 0.658676 0.544515
vt 0.675452 0.569622
vt 0.385969 0.771765
vt 0.919146 0.506387
vt 0.891249 0.494832
vt 0.861633 0.488941
vt 0.831437 0.488941
vt 0.801821 0.494832
vt 0.773924 0.506387
vt 0.748817 0.523163
vt 0.727465 0.544515
vt 0.710689 0.569622
vt 0.699134 0.597520
vt 0.693243 0.627135
vt 0.693243 0.657331
vt 0.699134 0.686947
vt 0.710689 0.714845
vt 0.727465 0.739952
vt 0.773924 0.778079
vt 0.801822 0.789635
vt 0.831437 0.795526
vt 0.861633 0.795526
vt 0.891249 0.789635
vt 0.919147 0.778079
vt 0.944254 0.761303
vt 0.982381 0.714844
vt 0.993937 0.686947
vt 0.999828 0.657331
vt 0.999828 0.627135
vt 0.993937 0.597519
vt 0.982381 0.569622
vt 0.965605 0.544515
vt 0.073827 0.820611
vt 0.075270 0.813357
vt 0.075270 0.805960
vt 0.073827 0.798706
vt 0.070996 0.791873
vt 0.066887 0.785723
vt 0.061657 0.780493
vt 0.055507 0.776383
vt 0.048674 0.773553
vt 0.041419 0.772110
vt 0.034023 0.772110
vt 0.026768 0.773553
vt 0.019935 0.776383
vt 0.013785 0.780493
vt 0.008555 0.785723
vt 0.001615 0.798706
vt 0.000172 0.805960
vt 0.000172 0.813357
vt 0.001615 0.820611
vt 0.004446 0.827445
vt 0.008555 0.833595
vt 0.013785 0.838825
vt 0.026768 0.845765
vt 0.034023 0.847207
vt 0.041419 0.847207
vt 0.048674 0.845765
vt 0.055507 0.842934
vt 0.061657 0.838825
vt 0.066887 0.833595
s 1
usemtl マテリアル
f 2/1/1 3/2/1 1/3/1
f 4/4/2 5/5/2 3/2/2
f 6/6/3 7/7/3 5/5/3
f 8/8/4 9/9/4 7/7/4
f 10/10/5 11/11/5 9/9/5
f 12/12/6 13/13/6 11/11/6
f 14/14/7 15/15/7 13/13/7
f 16/16/8 17/17/8 15/15/8
f 18/18/9 19/19/9 17/17/9
f 20/20/10 21/21/10 19/19/10
f 22/22/11 23/23/11 21/21/11
f 24/24/12 25/25/12 23/23/12
f 26/26/13 27/27/13 25/25/13
f 28/28/14 29/29/14 27/27/14
f 30/30/15 31/31/15 29/29/15
f 32/32/16 33/33/16 31/31/16
f 34/34/17 35/35/17 33/33/17
f 36/36/18 37/37/18 35/35/18
f 38/38/19 39/39/19 37/37/19
f 40/40/20 41/41/20 39/39/20
f 42/42/21 43/43/21 41/41/21
f 44/44/22 45/45/22 43/43/22
f 46/46/23 47/47/23 45/45/23
f 48/48/24 49/49/24 47/47/24
f 50/50/25 51/51/25 49/49/25
f 52/52/26 53/53/26 51/51/26
f 54/54/27 55/55/27 53/53/27
f 56/56/28 57/57/28 55/55/28
f 58/58/29 59/59/29 57/57/29
f 60/60/30 61/61/30 59/59/30
f 38/62/31 22/63/31 6/64/31
f 62/65/32 63/66/32 61/61/32
f 64/67/33 1/68/33 63/66/33
f 31/69/34 47/70/34 63/71/34
f 65/72/35 97/73/36 66/74/37
f 66/74/38 97/73/39 67/75/40
f 67/75/40 97/73/39 68/76/41
f 68/76/42 97/73/42 69/77/42
f 69/77/43 97/73/43 70/78/43
f 70/78/44 97/73/44 71/79/44
f 71/79/45 97/73/45 72/80/45
f 72/80/46 97/73/46 73/81/46
f 73/81/47 97/73/47 74/82/47
f 74/82/48 97/73/48 75/83/48
f 75/83/49 97/73/49 76/84/49
f 76/84/50 97/73/50 77/85/50
f 77/85/51 97/73/52 78/86/53
f 78/86/53 97/73/52 79/87/54
f 79/87/55 97/73/56 80/88/57
f 80/88/57 97/73/56 81/89/58
f 81/89/58 97/73/56 82/90/59
f 82/90/60 97/73/61 83/91/62
f 83/91/62 97/73/61 84/92/63
f 84/92/64 97/73/64 85/93/64
f 85/93/65 97/73/65 86/94/65
f 86/94/66 97/73/66 87/95/66
f 87/95/67 97/73/67 88/96/67
f 88/96/68 97/73/68 89/97/68
f 89/97/69 97/73/69 90/98/69
f 90/98/70 97/73/70 91/99/70
f 91/99/71 97/73/71 92/100/71
f 92/100/72 97/73/72 93/101/72
f 93/101/73 97/73/74 94/102/75
f 94/102/75 97/73/74 95/103/76
f 80/104/77 88/105/77 96/106/77
f 95/103/78 97/73/36 96/107/79
f 96/107/79 97/73/36 65/72/35
f 2/1/1 4/4/1 3/2/1
f 4/4/2 6/6/2 5/5/2
f 6/6/3 8/8/3 7/7/3
f 8/8/4 10/10/4 9/9/4
f 10/10/5 12/12/5 11/11/5
f 12/12/6 14/14/6 13/13/6
f 14/14/7 16/16/7 15/15/7
f 16/16/8 18/18/8 17/17/8
f 18/18/9 20/20/9 19/19/9
f 20/20/10 22/22/10 21/21/10
f 22/22/11 24/24/11 23/23/11
f 24/24/12 26/26/12 25/25/12
f 26/26/13 28/28/13 27/27/13
f 28/28/14 30/30/14 29/29/14
f 30/30/15 32/32/15 31/31/15
f 32/32/16 34/34/16 33/33/16
f 34/34/17 36/36/17 35/35/17
f 36/36/18 38/38/18 37/37/18
f 38/38/19 40/40/19 39/39/19
f 40/40/20 42/42/20 41/41/20
f 42/42/21 44/44/21 43/43/21
f 44/44/22 46/46/22 45/45/22
f 46/46/23 48/48/23 47/47/23
f 48/48/24 50/50/24 49/49/24
f 50/50/25 52/52/25 51/51/25
f 52/52/26 54/54/26 53/53/26
f 54/54/27 56/56/27 55/55/27
f 56/56/28 58/58/28 57/57/28
f 58/58/29 60/60/29 59/59/29
f 60/60/30 62/65/30 61/61/30
f 6/64/31 4/108/31 2/109/31
f 2/109/31 64/110/31 62/111/31
f 62/111/31 60/112/31 58/113/31
f 58/113/31 56/114/31 54/115/31
f 54/115/31 52/116/31 50/117/31
f 50/117/31 48/118/31 46/119/31
f 46/119/31 44/120/31 42/121/31
f 42/121/31 40/122/31 38/62/31
f 38/62/31 36/123/31 34/124/31
f 34/124/31 32/125/31 30/126/31
f 30/126/31 28/127/31 26/128/31
f 26/128/31 24/129/31 22/63/31
f 22/63/31 20/130/31 18/131/31
f 18/131/31 16/132/31 14/133/31
f 14/133/31 12/134/31 10/135/31
f 10/135/31 8/136/31 6/64/31
f 6/64/31 2/109/31 62/111/31
f 62/111/31 58/113/31 54/115/31
f 54/115/31 50/117/31 46/119/31
f 46/119/31 42/121/31 38/62/31
f 38/62/31 34/124/31 30/126/31
f 30/126/31 26/128/31 22/63/31
f 22/63/31 18/131/31 14/133/31
f 14/133/31 10/135/31 6/64/31
f 6/64/31 62/111/31 54/115/31
f 54/115/31 46/119/31 38/62/31
f 38/62/31 30/126/31 22/63/31
f 22/63/31 14/133/31 6/64/31
f 6/64/31 54/115/31 38/62/31
f 62/65/32 64/67/32 63/66/32
f 64/67/33 2/137/33 1/68/33
f 63/71/34 1/138/34 3/139/34
f 3/139/34 5/140/80 7/141/34
f 7/141/34 9/142/34 11/143/34
f 11/143/34 13/144/34 15/145/34
f 15/145/34 17/146/34 19/147/34
f 19/147/34 21/148/34 23/149/34
f 23/149/34 25/150/34 27/151/34
f 27/151/34 29/152/81 31/69/34
f 31/69/34 33/153/34 35/154/34
f 35/154/34 37/155/81 39/156/34
f 39/156/34 41/157/34 43/158/34
f 43/158/34 45/159/34 47/70/34
f 47/70/34 49/160/34 51/161/34
f 51/161/34 53/162/34 55/163/34
f 55/163/34 57/164/34 59/165/34
f 59/165/34 61/166/80 63/71/34
f 63/71/34 3/139/34 7/141/34
f 7/141/34 11/143/34 15/145/34
f 15/145/34 19/147/34 23/149/34
f 23/149/34 27/151/34 31/69/34
f 31/69/34 35/154/34 39/156/34
f 39/156/34 43/158/34 47/70/34
f 47/70/34 51/161/34 55/163/34
f 55/163/34 59/165/34 63/71/34
f 63/71/34 7/141/34 15/145/34
f 15/145/34 23/149/34 31/69/34
f 31/69/34 39/156/34 47/70/34
f 47/70/34 55/163/34 63/71/34
f 63/71/34 15/145/34 31/69/34
f 96/106/77 65/167/77 66/168/77
f 66/168/77 67/169/77 68/170/77
f 68/170/77 69/171/77 70/172/77
f 70/172/77 71/173/77 72/174/77
f 72/174/77 73/175/77 74/176/77
f 74/176/77 75/177/77 76/178/77
f 76/178/77 77/179/77 78/180/77
f 78/180/77 79/181/77 80/104/77
f 80/104/77 81/182/77 82/183/77
f 82/183/77 83/184/77 84/185/77
f 84/185/77 85/186/77 86/187/77
f 86/187/77 87/188/77 88/105/77
f 88/105/77 89/189/77 90/190/77
f 90/190/77 91/191/77 92/192/77
f 92/192/77 93/193/77 94/194/77
f 94/194/77 95/195/77 96/106/77
f 96/106/77 66/168/77 68/170/77
f 68/170/77 70/172/77 72/174/77
f 72/174/77 74/176/77 76/178/77
f 76/178/77 78/180/77 80/104/77
f 80/104/77 82/183/77 84/185/77
f 84/185/77 86/187/77 88/105/77
f 88/105/77 90/190/77 92/192/77
f 92/192/77 94/194/77 96/106/77
f 96/106/77 68/170/77 72/174/77
f 72/174/77 76/178/77 80/104/77
f 80/104/77 84/185/77 88/105/77
f 88/105/77 92/192/77 96/106/77
f 96/106/77 72/174/77 80/104/77
