# Blender 4.4.0
# www.blender.org
mtllib FlowerBubs.mtl
o 平面
v -0.001831 0.006523 -0.000000
v 0.009652 -0.001427 -0.000000
v 0.019418 -0.004008 -0.000000
v 0.033262 -0.003653 -0.000000
v 0.042137 -0.001523 -0.000000
v 0.058466 -0.001878 -0.000000
v 0.082604 -0.000103 -0.000000
v 0.101773 0.003091 -0.000000
v 0.110647 0.006996 -0.000000
v 0.125201 0.008771 -0.000000
v 0.146500 0.014451 -0.000000
v 0.156439 0.022615 -0.000000
v 0.166024 0.029360 -0.000000
v 0.178448 0.039299 -0.000000
v 0.186968 0.051723 -0.000000
v 0.190162 0.063083 -0.000000
v 0.192292 0.079767 -0.000000
v 0.192647 0.095741 -0.000000
v 0.189097 0.109230 -0.000000
v 0.183773 0.122719 -0.000000
v 0.175253 0.134433 -0.000000
v 0.165669 0.141888 -0.000000
v 0.155730 0.150407 -0.000000
v 0.145080 0.154667 -0.000000
v 0.133366 0.158572 -0.000000
v 0.122362 0.161057 -0.000000
v 0.111712 0.161767 -0.000000
v 0.099288 0.160702 -0.000000
v 0.089704 0.156797 -0.000000
v 0.077989 0.152892 -0.000000
v 0.070890 0.147212 -0.000000
v 0.060596 0.139403 -0.000000
v 0.051011 0.134433 -0.000000
v 0.041427 0.126624 -0.000000
v 0.032552 0.117394 -0.000000
v 0.024743 0.108165 -0.000000
v 0.020483 0.102130 -0.000000
v 0.017998 0.098580 -0.000000
v 0.017643 0.117039 -0.000000
v 0.017998 0.147567 -0.000000
v 0.018353 0.166381 -0.000000
v 0.017643 0.183420 -0.000000
v 0.019063 0.206494 -0.000000
v 0.018708 0.223888 -0.000000
v 0.019418 0.244831 -0.000000
v 0.020838 0.252641 -0.000000
v -0.012984 0.257377 -0.000000
v -0.011209 0.251165 -0.000000
v -0.012984 0.240812 -0.000000
v -0.015055 0.233712 -0.000000
v -0.014759 0.222767 -0.000000
v -0.013871 0.215076 -0.000000
v -0.014463 0.205610 -0.000000
v -0.014463 0.183867 -0.000000
v -0.015528 0.168604 -0.000000
v -0.016237 0.158309 -0.000000
v -0.014820 0.143753 -0.000000
v -0.015174 0.131330 -0.000000
v -0.016237 0.121036 -0.000000
v -0.027596 0.128846 -0.000000
v -0.038602 0.134880 -0.000000
v -0.046411 0.137011 -0.000000
v -0.052800 0.143400 -0.000000
v -0.068420 0.147660 -0.000000
v -0.078714 0.149789 -0.000000
v -0.089363 0.151564 -0.000000
v -0.104982 0.154759 -0.000000
v -0.114567 0.153694 -0.000000
v -0.123441 0.151919 -0.000000
v -0.129476 0.151209 -0.000000
v -0.140835 0.147305 -0.000000
v -0.147935 0.144820 -0.000000
v -0.156099 0.138075 -0.000000
v -0.164974 0.129556 -0.000000
v -0.169943 0.123166 -0.000000
v -0.172783 0.112517 -0.000000
v -0.175268 0.105772 -0.000000
v -0.176688 0.091218 -0.000000
v -0.178108 0.077374 -0.000000
v -0.176688 0.069209 -0.000000
v -0.171008 0.055720 -0.000000
v -0.167458 0.046846 -0.000000
v -0.156098 0.037263 -0.000000
v -0.150066 0.030161 -0.000000
v -0.140127 0.022706 -0.000000
v -0.131249 0.015254 -0.000000
v -0.117759 0.011350 -0.000000
v -0.107468 0.007798 -0.000000
v -0.096110 0.005667 -0.000000
v -0.082265 0.002118 -0.000000
v -0.074810 -0.002142 -0.000000
v -0.058126 -0.002141 -0.000000
v -0.042861 -0.002141 -0.000000
v -0.029727 0.001409 -0.000000
v -0.015883 0.004248 -0.000000
v -0.007718 0.003184 -0.000000
v 0.022636 0.261435 -0.000000
v 0.023149 0.270337 -0.000000
v 0.024861 0.276842 -0.000000
v 0.028628 0.282320 -0.000000
v 0.031024 0.288140 -0.000000
v 0.033250 0.293447 -0.000000
v 0.040268 0.296357 -0.000000
v 0.046260 0.303034 -0.000000
v 0.051909 0.307998 -0.000000
v 0.054819 0.317585 -0.000000
v 0.057901 0.325973 -0.000000
v 0.063208 0.334704 -0.000000
v 0.070740 0.343263 -0.000000
v 0.074335 0.353021 -0.000000
v 0.073308 0.373221 0.000000
v 0.071254 0.386403 0.000000
v 0.068515 0.400954 0.000000
v 0.065947 0.414649 0.000000
v 0.062865 0.420983 0.000000
v 0.059955 0.428002 0.000000
v 0.058414 0.437075 0.000000
v 0.050882 0.444265 0.000000
v 0.045233 0.450599 0.000000
v 0.039412 0.457618 0.000000
v 0.036331 0.464465 0.000000
v 0.028285 0.470457 0.000000
v 0.021266 0.473196 0.000000
v 0.012193 0.478503 0.000000
v 0.005859 0.481584 0.000000
v -0.000988 0.479530 0.000000
v -0.009719 0.478503 0.000000
v -0.015197 0.473881 0.000000
v -0.021189 0.472853 0.000000
v -0.026153 0.465492 0.000000
v -0.029919 0.457789 0.000000
v -0.033857 0.451968 0.000000
v -0.040362 0.447860 0.000000
v -0.045497 0.439985 0.000000
v -0.049092 0.433822 0.000000
v -0.052174 0.426290 0.000000
v -0.057309 0.416361 0.000000
v -0.062121 0.410358 0.000000
v -0.063148 0.402312 0.000000
v -0.065031 0.390158 0.000000
v -0.066914 0.380742 0.000000
v -0.066229 0.374408 0.000000
v -0.066571 0.365335 -0.000000
v -0.066400 0.359515 -0.000000
v -0.065544 0.350442 -0.000000
v -0.064175 0.345649 -0.000000
v -0.062292 0.340855 -0.000000
v -0.063148 0.335548 -0.000000
v -0.058697 0.330070 -0.000000
v -0.055958 0.324935 -0.000000
v -0.052363 0.319285 -0.000000
v -0.049624 0.315177 -0.000000
v -0.044830 0.310555 -0.000000
v -0.041235 0.305933 -0.000000
v -0.036613 0.300626 -0.000000
v -0.032505 0.294805 -0.000000
v -0.028910 0.291553 -0.000000
v -0.024117 0.287958 -0.000000
v -0.021035 0.285732 -0.000000
v -0.020693 0.279398 -0.000000
v -0.018467 0.275119 -0.000000
v -0.014701 0.271695 -0.000000
v -0.011962 0.268956 -0.000000
v -0.012133 0.262622 -0.000000
vn -0.0000 -0.0000 1.0000
vt 0.561343 0.967796
vt 0.441464 0.682400
vt 0.459773 0.642309
vt 0.284751 0.097386
vt 0.300541 0.073587
vt 0.317137 0.061286
vt 0.343704 0.051474
vt 0.362175 0.048797
vt 0.392924 0.035754
vt 0.440121 0.020840
vt 0.478953 0.012389
vt 0.498768 0.013083
vt 0.527759 0.005430
vt 0.572519 0.000085
vt 0.597585 0.008065
vt 0.620900 0.013616
vt 0.652029 0.023085
vt 0.256334 0.103710
vt 0.271037 0.095503
vt 0.171253 0.123572
vt 0.200249 0.112010
vt 0.227887 0.108804
vt 0.128625 0.149948
vt 0.139560 0.136210
vt 0.068194 0.194372
vt 0.085053 0.179829
vt 0.105013 0.167177
vt 0.677624 0.040232
vt 0.692297 0.059390
vt 0.708981 0.089469
vt 0.721756 0.119543
vt 0.725231 0.147856
vt 0.725335 0.177513
vt 0.718025 0.206218
vt 0.705466 0.227639
vt 0.693039 0.251351
vt 0.676036 0.267509
vt 0.656742 0.283800
vt 0.637721 0.296856
vt 0.618030 0.306272
vt 0.593623 0.313660
vt 0.572459 0.313503
vt 0.547249 0.314959
vt 0.529461 0.309549
vt 0.045527 0.212007
vt 0.014998 0.272636
vt 0.021076 0.254577
vt 0.034308 0.232887
vt 0.503990 0.302512
vt 0.482020 0.300332
vt 0.457898 0.292758
vt 0.434049 0.281948
vt 0.412223 0.270332
vt 0.399560 0.262096
vt 0.392151 0.257235
vt 0.000656 0.318992
vt 0.000678 0.299446
vt 0.003573 0.365503
vt 0.000085 0.348918
vt 0.040308 0.428225
vt 0.030479 0.417296
vt 0.016757 0.390725
vt 0.405459 0.292568
vt 0.068050 0.454676
vt 0.053769 0.446303
vt 0.111979 0.470764
vt 0.091361 0.464137
vt 0.151882 0.468919
vt 0.127347 0.470106
vt 0.201098 0.457108
vt 0.182085 0.462345
vt 0.163883 0.465696
vt 0.429259 0.350289
vt 0.444185 0.385758
vt 0.455743 0.418662
vt 0.228347 0.439207
vt 0.265173 0.415925
vt 0.247232 0.427769
vt 0.298914 0.379025
vt 0.291618 0.396003
vt 0.328468 0.349265
vt 0.312133 0.369063
vt 0.344129 0.325825
vt 0.475919 0.461416
vt 0.488420 0.494725
vt 0.514247 0.547730
vt 0.524324 0.563073
vt 0.532042 0.579594
vt 0.540222 0.590654
vt 0.551525 0.598207
vt 0.560487 0.607448
vt 0.505634 0.533971
vt 0.568734 0.615843
vt 0.584271 0.616054
vt 0.600710 0.624197
vt 0.615202 0.629348
vt 0.627992 0.645354
vt 0.640199 0.658954
vt 0.656893 0.671519
vt 0.677685 0.682072
vt 0.691906 0.697884
vt 0.705256 0.737034
vt 0.711339 0.763629
vt 0.717159 0.793344
vt 0.722655 0.821304
vt 0.721600 0.835670
vt 0.721388 0.851207
vt 0.725335 0.869609
vt 0.716473 0.888973
vt 0.710540 0.905284
vt 0.704800 0.923025
vt 0.704134 0.938367
vt 0.693389 0.955843
vt 0.682132 0.966363
vt 0.668917 0.983316
vt 0.659219 0.993968
vt 0.644656 0.995252
vt 0.627293 0.999915
vt 0.613386 0.995284
vt 0.601227 0.997872
vt 0.586220 0.987650
vt 0.573231 0.975869
vt 0.545873 0.964919
vt 0.530153 0.953851
vt 0.353947 0.344572
vt 0.518656 0.944867
vt 0.364030 0.367903
vt 0.381510 0.415644
vt 0.372364 0.396627
vt 0.419859 0.502666
vt 0.411564 0.485133
vt 0.395094 0.443832
vt 0.507096 0.932893
vt 0.489820 0.917923
vt 0.476134 0.910165
vt 0.468088 0.895659
vt 0.431728 0.538963
vt 0.423999 0.517948
vt 0.455304 0.873998
vt 0.444594 0.857539
vt 0.441097 0.844988
vt 0.441040 0.550880
vt 0.433574 0.828013
vt 0.429490 0.816827
vt 0.424243 0.798944
vt 0.423214 0.788801
vt 0.423160 0.778270
vt 0.417514 0.768838
vt 0.421819 0.755060
vt 0.452254 0.569203
vt 0.459177 0.591666
vt 0.453588 0.582348
vt 0.464300 0.603568
vt 0.423132 0.743230
vt 0.425681 0.729776
vt 0.427772 0.719896
vt 0.433376 0.707485
vt 0.436703 0.695982
vt 0.455626 0.630018
vt 0.456611 0.620202
vt 0.461172 0.610846
vt 0.449224 0.659330
vt 0.455606 0.648870
vt 0.444859 0.668232
s 1
usemtl マテリアル
f 132/1/1 155/2/1 159/3/1
f 1/4/1 2/5/1 3/6/1
f 3/6/1 4/7/1 5/8/1
f 5/8/1 6/9/1 7/10/1
f 7/10/1 8/11/1 9/12/1
f 9/12/1 10/13/1 11/14/1
f 12/15/1 13/16/1 14/17/1
f 9/12/1 11/14/1 12/15/1
f 5/8/1 7/10/1 9/12/1
f 1/4/1 3/6/1 5/8/1
f 95/18/1 96/19/1 1/4/1
f 92/20/1 93/21/1 94/22/1
f 92/20/1 94/22/1 95/18/1
f 90/23/1 91/24/1 92/20/1
f 87/25/1 88/26/1 89/27/1
f 89/27/1 90/23/1 92/20/1
f 92/20/1 95/18/1 1/4/1
f 1/4/1 5/8/1 9/12/1
f 9/12/1 12/15/1 14/17/1
f 14/17/1 15/28/1 16/29/1
f 16/29/1 17/30/1 18/31/1
f 18/31/1 19/32/1 20/33/1
f 20/33/1 21/34/1 22/35/1
f 22/35/1 23/36/1 24/37/1
f 24/37/1 25/38/1 26/39/1
f 26/39/1 27/40/1 28/41/1
f 29/42/1 30/43/1 31/44/1
f 26/39/1 28/41/1 29/42/1
f 22/35/1 24/37/1 26/39/1
f 18/31/1 20/33/1 22/35/1
f 14/17/1 16/29/1 18/31/1
f 1/4/1 9/12/1 14/17/1
f 89/27/1 92/20/1 1/4/1
f 86/45/1 87/25/1 89/27/1
f 83/46/1 84/47/1 85/48/1
f 85/48/1 86/45/1 89/27/1
f 89/27/1 1/4/1 14/17/1
f 14/17/1 18/31/1 22/35/1
f 22/35/1 26/39/1 29/42/1
f 29/42/1 31/44/1 32/49/1
f 32/49/1 33/50/1 34/51/1
f 34/51/1 35/52/1 36/53/1
f 36/53/1 37/54/1 38/55/1
f 34/51/1 36/53/1 38/55/1
f 29/42/1 32/49/1 34/51/1
f 14/17/1 22/35/1 29/42/1
f 85/48/1 89/27/1 14/17/1
f 81/56/1 82/57/1 83/46/1
f 83/46/1 85/48/1 14/17/1
f 14/17/1 29/42/1 34/51/1
f 14/17/1 34/51/1 38/55/1
f 81/56/1 83/46/1 14/17/1
f 79/58/1 80/59/1 81/56/1
f 76/60/1 77/61/1 78/62/1
f 78/62/1 79/58/1 81/56/1
f 81/56/1 14/17/1 38/55/1
f 81/56/1 38/55/1 39/63/1
f 76/60/1 78/62/1 81/56/1
f 74/64/1 75/65/1 76/60/1
f 72/66/1 73/67/1 74/64/1
f 70/68/1 71/69/1 72/66/1
f 67/70/1 68/71/1 69/72/1
f 69/72/1 70/68/1 72/66/1
f 72/66/1 74/64/1 76/60/1
f 76/60/1 81/56/1 39/63/1
f 40/73/1 41/74/1 42/75/1
f 69/72/1 72/66/1 76/60/1
f 66/76/1 67/70/1 69/72/1
f 64/77/1 65/78/1 66/76/1
f 62/79/1 63/80/1 64/77/1
f 60/81/1 61/82/1 62/79/1
f 59/83/1 60/81/1 62/79/1
f 62/79/1 64/77/1 66/76/1
f 66/76/1 69/72/1 76/60/1
f 39/63/1 40/73/1 42/75/1
f 42/75/1 43/84/1 44/85/1
f 62/79/1 66/76/1 76/60/1
f 59/83/1 62/79/1 76/60/1
f 46/86/1 97/87/1 98/88/1
f 99/89/1 100/90/1 101/91/1
f 45/92/1 46/86/1 98/88/1
f 99/89/1 101/91/1 102/93/1
f 102/93/1 103/94/1 104/95/1
f 104/95/1 105/96/1 106/97/1
f 104/95/1 106/97/1 107/98/1
f 102/93/1 104/95/1 107/98/1
f 108/99/1 109/100/1 110/101/1
f 102/93/1 107/98/1 108/99/1
f 102/93/1 108/99/1 110/101/1
f 110/101/1 111/102/1 112/103/1
f 113/104/1 114/105/1 115/106/1
f 110/101/1 112/103/1 113/104/1
f 102/93/1 110/101/1 113/104/1
f 113/104/1 115/106/1 116/107/1
f 116/107/1 117/108/1 118/109/1
f 116/107/1 118/109/1 119/110/1
f 102/93/1 113/104/1 116/107/1
f 99/89/1 102/93/1 116/107/1
f 116/107/1 119/110/1 120/111/1
f 120/111/1 121/112/1 122/113/1
f 123/114/1 124/115/1 125/116/1
f 120/111/1 122/113/1 123/114/1
f 99/89/1 116/107/1 120/111/1
f 98/88/1 99/89/1 120/111/1
f 120/111/1 123/114/1 125/116/1
f 126/117/1 127/118/1 128/119/1
f 120/111/1 125/116/1 126/117/1
f 45/92/1 98/88/1 120/111/1
f 45/92/1 120/111/1 126/117/1
f 128/119/1 129/120/1 130/121/1
f 45/92/1 126/117/1 128/119/1
f 44/85/1 45/92/1 128/119/1
f 128/119/1 130/121/1 131/122/1
f 132/1/1 133/123/1 134/124/1
f 128/119/1 131/122/1 132/1/1
f 42/75/1 44/85/1 128/119/1
f 59/83/1 76/60/1 39/63/1
f 58/125/1 59/83/1 39/63/1
f 39/63/1 42/75/1 128/119/1
f 132/1/1 134/124/1 135/126/1
f 39/63/1 128/119/1 132/1/1
f 57/127/1 58/125/1 39/63/1
f 55/128/1 56/129/1 57/127/1
f 52/130/1 53/131/1 54/132/1
f 54/132/1 55/128/1 57/127/1
f 132/1/1 135/126/1 136/133/1
f 137/134/1 138/135/1 139/136/1
f 132/1/1 136/133/1 137/134/1
f 54/132/1 57/127/1 39/63/1
f 50/137/1 51/138/1 52/130/1
f 52/130/1 54/132/1 39/63/1
f 132/1/1 137/134/1 139/136/1
f 140/139/1 141/140/1 142/141/1
f 132/1/1 139/136/1 140/139/1
f 50/137/1 52/130/1 39/63/1
f 49/142/1 50/137/1 39/63/1
f 132/1/1 140/139/1 142/141/1
f 142/141/1 143/143/1 144/144/1
f 144/144/1 145/145/1 146/146/1
f 147/147/1 148/148/1 149/149/1
f 144/144/1 146/146/1 147/147/1
f 132/1/1 142/141/1 144/144/1
f 48/150/1 49/142/1 39/63/1
f 164/151/1 47/152/1 48/150/1
f 163/153/1 164/151/1 48/150/1
f 132/1/1 144/144/1 147/147/1
f 147/147/1 149/149/1 150/154/1
f 150/154/1 151/155/1 152/156/1
f 153/157/1 154/158/1 155/2/1
f 150/154/1 152/156/1 153/157/1
f 132/1/1 147/147/1 150/154/1
f 163/153/1 48/150/1 39/63/1
f 160/159/1 161/160/1 162/161/1
f 163/153/1 39/63/1 132/1/1
f 160/159/1 162/161/1 163/153/1
f 157/162/1 158/163/1 159/3/1
f 159/3/1 160/159/1 163/153/1
f 132/1/1 150/154/1 153/157/1
f 155/2/1 156/164/1 157/162/1
f 132/1/1 153/157/1 155/2/1
f 159/3/1 163/153/1 132/1/1
f 155/2/1 157/162/1 159/3/1
